<svg xmlns="http://www.w3.org/2000/svg" viewBox="0 0 512 512" fill="none">
  <defs>
    <linearGradient id="meeple-grad" x1="256" y1="32" x2="256" y2="480" gradientUnits="userSpaceOnUse">
      <stop offset="0%" stop-color="#818CF8"/>
      <stop offset="100%" stop-color="#6366F1"/>
    </linearGradient>
  </defs>
  <!-- Head -->
  <circle cx="256" cy="96" r="64" fill="url(#meeple-grad)"/>
  <!-- Body + Arms + Legs -->
  <path fill="url(#meeple-grad)" d="
    M 200 152
    C 168 164, 40 212, 28 252
    C 16 292, 68 316, 120 282
    C 142 268, 156 258, 164 252
    L 172 282
    C 168 296, 166 310, 166 310
    L 132 432
    C 128 460, 164 468, 172 444
    L 232 366
    C 242 354, 252 350, 256 350
    C 260 350, 270 354, 280 366
    L 340 444
    C 348 468, 384 460, 380 432
    L 346 310
    C 346 310, 344 296, 340 282
    L 348 252
    C 356 258, 370 268, 392 282
    C 444 316, 496 292, 484 252
    C 472 212, 344 164, 312 152
    Z
  "/>
</svg>
